<svg xmlns="http://www.w3.org/2000/svg" viewBox="0 0 32 32" width="32" height="32">
  <!-- Background rounded square -->
  <rect width="32" height="32" rx="8" fill="#0a0a0a"/>

  <!-- Link chain / scissors-cut arrow shape suggesting shortening -->
  <!-- Left link arc -->
  <path d="M7 13 C7 9.5 10 7 13 7 L14.5 7 C16 7 17 8 17 9.5 C17 11 16 12 14.5 12 L13 12 C12 12 11 12.8 11 14 C11 15.2 12 16 13 16" stroke="#e8ff47" stroke-width="2.2" fill="none" stroke-linecap="round"/>

  <!-- Right link arc -->
  <path d="M25 19 C25 22.5 22 25 19 25 L17.5 25 C16 25 15 24 15 22.5 C15 21 16 20 17.5 20 L19 20 C20 20 21 19.2 21 18 C21 16.8 20 16 19 16" stroke="#e8ff47" stroke-width="2.2" fill="none" stroke-linecap="round"/>

  <!-- Center cut / link indicator dot -->
  <circle cx="16" cy="16" r="1.8" fill="#e8ff47"/>

  <!-- Arrow tip suggesting redirect/forward -->
  <path d="M21 11 L25 11 L25 15" stroke="#e8ff47" stroke-width="2" fill="none" stroke-linecap="round" stroke-linejoin="round"/>
  <path d="M25 11 L20 16" stroke="#e8ff47" stroke-width="2" fill="none" stroke-linecap="round"/>
</svg>